<?xml version="1.0" encoding="UTF-8" standalone="no"?>
<!DOCTYPE svg PUBLIC "-//W3C//DTD SVG 1.1//EN" "http://www.w3.org/Graphics/SVG/1.1/DTD/svg11.dtd">
<svg version="1.1" xmlns="http://www.w3.org/2000/svg" xmlns:xlink="http://www.w3.org/1999/xlink" preserveAspectRatio="xMidYMid meet" viewBox="0 0 420 120" width="420" height="120"><defs><path d="M-5.57 90.27C-5.57 90.27 -5.09 90.27 -4.16 90.26C-3.7 90.26 -3.13 90.26 -2.44 90.26C-2.1 90.26 -1.73 90.26 -1.33 90.26C-0.94 90.24 -0.52 90.18 -0.07 90.14C0.82 90.05 1.81 89.95 2.9 89.84C3.98 89.62 5.15 89.39 6.42 89.13C7.68 88.82 8.99 88.37 10.41 87.95C11.77 87.37 13.28 86.89 14.76 86.13C17.78 84.74 20.9 82.75 24.15 80.42C27.39 78.05 30.68 75.21 34.12 72.08C37.57 68.95 41.13 65.5 44.99 61.93C46.91 60.14 48.91 58.34 51.01 56.54C52.04 55.64 53.1 54.73 54.22 53.84C54.78 53.39 55.34 52.94 55.9 52.49C56.48 52.06 57.08 51.64 57.67 51.21C60.02 49.45 62.7 47.99 65.55 46.76C66.27 46.46 67.03 46.27 67.78 46.02C68.54 45.81 69.27 45.49 70.06 45.38C70.84 45.24 71.62 45.1 72.41 44.97C72.49 44.95 72.88 44.89 73.6 44.76C74.31 44.73 74.71 44.7 74.79 44.7C75.6 44.66 76.4 44.63 77.21 44.59C77.63 44.59 77.98 44.53 78.46 44.57C78.58 44.57 79.52 44.62 79.64 44.62C80.4 44.64 81.29 44.79 82.12 44.88C82.95 45.01 83.76 45.17 84.58 45.35C87.83 46.1 90.96 47.32 94 48.62C97.04 49.92 100.05 51.25 103.16 52.16C103.94 52.41 104.73 52.57 105.51 52.78C105.91 52.87 106.31 52.93 106.71 53.01C106.75 53.02 106.94 53.05 107.3 53.12C107.39 53.14 107.44 53.15 107.45 53.15C107.59 53.17 107.43 53.15 107.51 53.16C107.54 53.16 107.8 53.19 107.83 53.19C108.68 53.27 109.56 53.36 110.28 53.31C111.01 53.32 111.86 53.25 112.69 53.19C114.38 53.06 116.12 52.85 117.96 52.8C118.06 52.8 118.52 52.79 119.36 52.77L120.79 52.87L121.52 52.93L122.25 53.07L122.98 53.23L123.35 53.31C123.46 53.33 123.52 53.35 123.54 53.35C123.65 53.38 123.53 53.33 123.85 53.44C125.37 53.91 127.51 55.12 128.91 56.23C130.38 57.37 131.72 58.53 133.07 59.52C133.75 59.95 134.42 60.44 135.11 60.72C135.15 60.73 135.32 60.82 135.63 60.97C135.7 61 135.75 61.02 135.76 61.03C135.7 61.01 135.83 61.05 135.86 61.06C135.88 61.07 135.99 61.11 136.18 61.17C136.95 61.44 137.38 61.59 137.46 61.62C138.32 61.91 139.08 62.07 139.9 62.3C140.73 62.44 141.56 62.67 142.4 62.73C145.74 63.16 149.1 62.66 152.36 61.41C155.64 60.2 158.85 58.4 162.16 56.65C165.46 54.91 168.79 53.16 172.13 51.41C178.76 47.92 185.23 44.14 190.94 39.41C192.34 38.21 193.46 36.96 194.72 35.54C195.09 35.1 198.02 31.61 198.39 31.18C200.86 28.23 203.44 25.24 206.57 22.61C208.19 21.34 209.94 20.15 212.01 19.33C213.08 18.99 214.15 18.61 215.32 18.55C215.41 18.54 216.1 18.47 216.18 18.46C216.13 18.45 216.5 18.45 216.53 18.46C216.54 18.46 216.6 18.46 216.7 18.47L217.06 18.48L217.78 18.52L218.14 18.55C218.42 18.6 218.57 18.62 218.6 18.63C219.86 18.83 220.98 19.2 222.02 19.75C222.54 20.05 223.06 20.33 223.49 20.7C223.54 20.74 223.77 20.92 224.17 21.24C224.53 21.59 224.73 21.79 224.77 21.83C226.34 23.41 227.39 25.14 228.44 26.66C229.49 28.18 230.54 29.5 231.8 30.42C232.41 30.88 233.13 31.24 233.79 31.5C234.21 31.64 234.74 31.87 235.08 31.92C235.45 31.99 235.77 32.11 236.17 32.14C237.75 32.38 239.37 32.21 241.09 31.8C242.8 31.4 244.63 30.78 246.66 30.39C248.67 30 250.89 29.91 252.99 30.35C253.03 30.36 253.34 30.42 253.38 30.43C253.49 30.45 253.42 30.42 253.67 30.49C253.68 30.5 253.74 30.51 253.84 30.54L254.51 30.75C255.32 30.99 255.77 31.12 255.86 31.15C256.81 31.55 257.82 31.91 258.71 32.36C262.28 34.09 265.42 36.35 268.35 38.73C274.2 43.52 279.24 48.9 284.41 53.74C286.98 56.21 289.65 58.31 292.58 59.67C295.57 61.1 298.82 61.93 302.14 62.56C305.47 63.18 308.9 63.6 312.3 64.41C315.7 65.19 319.08 66.47 321.99 68.44C322.69 68.97 323.38 69.5 324.08 70.02C324.26 70.19 325.74 71.56 325.92 71.73C326.52 72.26 327.08 72.91 327.65 73.54C328.22 74.16 328.81 74.78 329.3 75.4C331.4 77.9 333.3 80.34 335.4 82.49C337.44 84.71 339.85 86.35 342.3 87.82C343.53 88.46 344.94 89.12 346.23 89.75C347.55 90.43 348.87 90.85 350.17 91.41C355.42 93.43 360.7 94.91 365.79 95.88C370.89 96.89 375.78 97.58 380.41 97.97C389.67 98.83 397.81 98.93 404.51 98.99C411.21 99.02 416.47 99.05 420.06 99.07C423.65 99.12 425.57 99.14 425.57 99.14C425.57 99.14 417.91 99.37 404.51 99.78C397.81 99.92 389.66 100.07 380.3 99.48C370.96 98.89 360.32 97.6 349.33 93.54C347.98 92.99 346.52 92.54 345.21 91.9C343.87 91.26 342.58 90.69 341.15 89.99C338.45 88.45 335.75 86.66 333.55 84.34C331.27 82.1 329.26 79.59 327.19 77.23C326.68 76.61 326.15 76.08 325.63 75.52C325.1 74.96 324.61 74.39 323.97 73.86C323.86 73.75 323.27 73.22 322.21 72.27C321.09 71.46 320.47 71.01 320.35 70.92C317.76 69.24 314.79 68.16 311.6 67.48C308.41 66.79 305.03 66.43 301.56 65.85C298.09 65.27 294.49 64.42 291.1 62.81C287.61 61.2 284.64 58.81 282.01 56.33C276.68 51.4 271.68 46.12 266.04 41.58C263.24 39.32 260.28 37.24 257.11 35.72C256.33 35.34 255.57 35.08 254.8 34.75C254.71 34.72 254.26 34.59 253.45 34.35L252.77 34.15C252.67 34.12 252.62 34.11 252.61 34.1C252.75 34.14 252.56 34.1 252.55 34.1C252.52 34.09 252.29 34.05 252.26 34.05C250.67 33.73 249.06 33.79 247.38 34.12C245.7 34.45 243.94 35.05 241.98 35.53C240.03 36.01 237.81 36.29 235.62 35.97C235.08 35.93 234.49 35.75 233.93 35.63C233.34 35.49 233 35.32 232.51 35.17C231.4 34.76 230.42 34.24 229.5 33.57C227.66 32.24 226.33 30.51 225.21 28.9C224.09 27.29 223.11 25.76 221.96 24.64C221.93 24.61 221.79 24.47 221.54 24.22C221.27 24.01 221.12 23.9 221.09 23.88C220.8 23.62 220.47 23.46 220.15 23.28C219.51 22.93 218.78 22.72 218.16 22.61C218.14 22.61 218.06 22.59 217.91 22.55L217.56 22.53L216.84 22.49L216.49 22.48C216.38 22.47 216.32 22.47 216.31 22.47C216.21 22.46 216.46 22.47 216.29 22.48C216.23 22.49 215.78 22.54 215.73 22.55C214.98 22.57 214.23 22.87 213.47 23.09C211.97 23.7 210.53 24.68 209.14 25.76C206.38 28.05 203.9 30.85 201.45 33.75C201.07 34.19 198.08 37.71 197.71 38.14C196.43 39.58 194.97 41.16 193.46 42.43C187.37 47.41 180.61 51.29 173.89 54.76C170.55 56.49 167.21 58.22 163.9 59.94C160.6 61.66 157.29 63.5 153.62 64.84C149.99 66.23 145.86 66.83 141.96 66.29C140.98 66.21 140.04 65.96 139.09 65.78C138.16 65.52 137.14 65.28 136.3 64.98C136.21 64.95 135.79 64.8 135.02 64.53L134.7 64.41L134.49 64.34L134.31 64.26C133.89 64.06 133.65 63.94 133.6 63.92C132.63 63.51 131.84 62.92 131.01 62.38C129.46 61.23 128.11 60.04 126.78 58.99C125.35 57.94 124.43 57.32 122.59 56.66C122.81 56.74 122.57 56.66 122.58 56.68C122.57 56.67 122.53 56.66 122.44 56.65L122.17 56.59L121.61 56.47L121.05 56.34L120.46 56.3L119.28 56.2C118.54 56.21 118.13 56.21 118.05 56.21C116.4 56.23 114.69 56.41 112.92 56.51C111.24 56.63 109.08 56.64 107.5 56.4C107.47 56.4 107.21 56.37 107.18 56.37C107.15 56.37 106.89 56.33 106.92 56.33C106.91 56.32 106.85 56.31 106.76 56.3C106.36 56.21 106.14 56.17 106.1 56.16C105.66 56.06 105.22 55.99 104.79 55.88C103.94 55.64 103.07 55.45 102.25 55.16C98.89 54.11 95.81 52.67 92.82 51.34C89.83 49.99 86.91 48.8 83.93 48.05C83.2 47.88 82.44 47.71 81.71 47.59C80.96 47.5 80.3 47.34 79.48 47.32C79.36 47.31 78.42 47.24 78.31 47.23C78.01 47.2 77.57 47.24 77.22 47.24C76.47 47.26 75.72 47.28 74.97 47.3C74.9 47.3 74.53 47.32 73.86 47.34C73.2 47.44 72.84 47.5 72.76 47.51C72.04 47.62 71.31 47.73 70.59 47.84C69.86 47.93 69.19 48.22 68.49 48.4C67.81 48.62 67.1 48.77 66.44 49.04C63.79 50.13 61.26 51.43 58.97 53.08C54.37 56.28 50.24 59.99 46.29 63.38C42.35 66.81 38.68 70.16 35.12 73.21C31.57 76.25 28.16 79.02 24.8 81.33C21.43 83.6 18.2 85.52 15.09 86.85C13.56 87.57 12.02 88.02 10.62 88.57C9.16 88.94 7.8 89.33 6.53 89.6C5.23 89.81 4.04 90 2.94 90.17C1.84 90.24 0.83 90.3 -0.07 90.36C-0.52 90.38 -0.94 90.42 -1.34 90.43C-1.73 90.41 -2.1 90.4 -2.44 90.38C-3.13 90.36 -3.7 90.34 -4.16 90.32C-5.09 90.29 -5.57 90.27 -5.57 90.27" id="eEb7Y1GCb"></path><path d="M237.9 35.74C237.9 35.74 237.32 35.78 236.24 35.84C235.7 35.87 235.08 36.12 234.35 36.28C233.67 36.62 232.86 36.93 232.13 37.58C230.63 38.78 229.38 40.82 228.35 43.36C227.28 45.91 226.49 48.96 224.9 52.22C224.52 53.04 224 53.84 223.48 54.67C223.15 55.06 222.83 55.45 222.51 55.84C222.5 55.85 222.46 55.9 222.38 55.99L222.21 56.16L221.96 56.4C221.65 56.68 221.48 56.84 221.45 56.87C219.93 58.24 218.11 59.32 216.25 60.2C212.48 61.97 208.37 63.03 204.58 64.62C202.69 65.41 200.87 66.4 199.38 67.62C198.98 67.98 198.49 68.34 198.15 68.69C197.8 69.05 197.44 69.37 197.09 69.74C196.38 70.51 195.69 71.31 195.02 72.16C192.34 75.56 190.11 79.66 186.82 83.35C185.16 85.17 183.19 86.84 180.94 88.05C180.93 88.06 180.86 88.1 180.74 88.17L180.63 88.23L180.58 88.26L180.37 88.36L179.98 88.52C179.5 88.71 179.23 88.82 179.18 88.84C178.7 89.07 178.01 89.24 177.35 89.41C176.68 89.58 176.01 89.74 175.44 89.8C174.84 89.89 174.23 89.99 173.65 90.05C171.29 90.31 169.04 90.38 166.9 90.54C164.71 90.67 162.97 91.09 160.78 91.71C159.74 91.99 158.71 92.26 157.68 92.54C156.7 92.86 155.72 93.18 154.76 93.49C153.79 93.8 152.84 94.1 151.89 94.41C150.96 94.76 150.03 95.12 149.12 95.46C148.2 95.81 147.3 96.15 146.42 96.49C145.53 96.84 144.68 97.25 143.83 97.6C142.14 98.33 140.48 98.98 138.94 99.75C137.4 100.49 135.91 101.2 134.5 101.87C133.11 102.59 131.79 103.27 130.55 103.91C128.06 105.19 125.96 106.42 124.18 107.37C120.69 109.4 118.7 110.56 118.7 110.56C118.7 110.56 119.16 110.2 120.01 109.54C120.87 108.89 122.11 107.89 123.74 106.69C125.41 105.55 127.37 104.07 129.76 102.57C130.95 101.81 132.22 101 133.55 100.15C134.91 99.33 136.37 98.53 137.88 97.67C139.38 96.77 141.02 95.99 142.69 95.12C144.35 94.24 146.13 93.45 147.97 92.65C148.88 92.25 149.81 91.84 150.75 91.42C151.73 91.06 152.71 90.68 153.7 90.3C154.7 89.93 155.71 89.54 156.73 89.19C157.74 88.88 158.77 88.57 159.8 88.26C161.74 87.63 164.27 86.95 166.53 86.77C168.8 86.51 171.05 86.39 173.2 86.15C174.23 85.99 175.39 85.86 176.21 85.61C176.66 85.49 177.08 85.43 177.64 85.16C177.7 85.14 177.96 85.03 178.44 84.83C178.67 84.73 178.81 84.68 178.83 84.67C178.99 84.6 178.67 84.74 178.72 84.72C178.72 84.72 178.74 84.71 178.76 84.69L178.84 84.65C178.94 84.59 179 84.55 179.01 84.55C180.79 83.56 182.38 82.2 183.81 80.61C186.71 77.46 188.99 73.43 191.94 69.73C192.69 68.8 193.46 67.9 194.31 67.04C194.73 66.61 195.22 66.18 195.67 65.76C196.14 65.34 196.56 65.05 197 64.69C199 63.15 201.12 62.12 203.23 61.3C207.45 59.67 211.54 58.88 215.02 57.43C218.5 55.99 221.32 54.07 222.85 51.11C224.49 48.26 225.6 45.23 226.94 42.71C228.23 40.16 229.87 38.05 231.66 36.92C232.53 36.31 233.46 36.06 234.22 35.81C235.03 35.73 235.71 35.58 236.24 35.62C237.32 35.7 237.9 35.74 237.9 35.74" id="aPg3Q5KsV"></path><path d="M7.2 93.64C13.21 88.48 22.17 84.79 29.16 80.77C36.97 76.29 44.47 69.97 52.3 65.87C52.09 67.97 52.9 70.58 52.63 72.68C60.53 63.28 69.83 53.78 83.56 53.57C77.99 54.32 62.71 65.7 69.59 71.24C66.97 71.92 63.98 71.86 61.31 71.14C61.94 76.64 60.89 82.02 54.33 78.97C57.59 84.91 60.74 90.55 49.84 89.31C41.96 88.41 41.81 84.06 35.19 90.04C35.33 88.8 34.92 87.2 34.93 85.94C27.59 85.27 15.71 94.19 10.07 98.99C13.23 96.89 15.91 94.12 18.25 91.16C14.27 90.75 10.88 92.85 7.2 93.64" id="a4CdgzX5wU"></path><path d="M81.21 57.94C91.77 67.01 91.25 81.97 100.58 91.66C108.24 99.62 117.97 107.37 123.53 117.28C116.98 109.36 111.48 92.64 101.55 89.24C106.81 89.21 111.39 91.62 115.78 93.51C111.57 89.43 104.77 86.76 100.98 82.58C96.84 78.03 96.44 71.27 94.38 65.91C103.42 64.51 113.78 78.66 118.48 84.84C119.28 81.13 117.2 77.94 114.6 75.49C117.85 76.48 121.92 79.17 124.75 81.66C126.16 82.91 129.6 87.76 130.8 88.27C133.44 89.37 137.93 88.41 140.61 89.05C144.3 89.94 146.2 92.94 150.56 92.81C144.69 87.52 135.86 85.37 130.04 81.62C137.42 81.15 147.88 84.45 154.21 81.23C147.96 75.26 134.87 78.03 127.55 73.38C122.6 70.23 119.61 63.05 113.51 61.53C115.17 63.55 115.88 65.84 118.39 67.36C112.25 66.79 106.99 61.27 101.33 58.95C102.66 60.94 103.95 63.7 105.52 65.52C101.09 62.04 96.18 54.3 90.03 54.59C91.22 57.18 92.08 60.19 92.4 63.03C88.53 62.66 85.67 59.61 82.08 57.94" id="bdantY28J"></path><path d="M217.92 25.72C205.57 32.18 195.6 42.7 183.13 49.47C172.07 55.48 155.89 62.23 147.7 71.72C153.95 72.23 161.49 67.56 167.26 65.89C168.25 75 162.21 78.24 157.05 83.93C162.72 82.3 167.77 77.88 171.79 73.61C174.3 70.94 178.22 60.95 180.48 59.83C192.24 54.03 180.37 82.3 179.72 84.67C186.01 79.91 188.94 70.21 192.01 63.17C196.53 52.8 195 56.14 200.33 63.08C200.66 61.08 201.22 59.33 201.37 57.31C200.93 60.24 201.27 63.81 202.24 65.9C206.29 59.55 201.91 49.72 205.47 43.82C207.61 40.27 211.46 41.31 213.78 38.15C216 35.11 216.16 31.2 216.17 27.46" id="i25g73Ss8"></path><path d="M246.65 40.53C236.99 41.79 230.07 52.54 222.07 56.87C215.12 60.64 207.27 61.01 201.16 67.28C191.7 76.97 188 92.39 177.3 101.58C183.03 98.38 201.56 71.51 206.57 85.06C207.95 82.9 208.95 80.03 209.38 77.21C210.31 77.56 212.52 77.48 213.43 77.85C212.19 65.74 221.25 67.38 228.15 62.95C229.4 62.15 230.48 59.3 232.09 58.16C234.1 56.73 235.89 58.8 237.05 58C240.91 55.33 243.19 52.17 242.43 46.75C243.11 46.45 245.81 45.87 246.41 45.84C248.66 48.91 250.11 52.1 251.92 55.28C252.74 56.73 252.29 58.99 253.38 60.79C254.41 62.48 257.65 62.67 258.71 64.21C261.56 68.36 260.16 71.54 264.98 76.08C267.61 78.56 270.75 81.55 274.21 82.16C271.01 79.08 265.38 74.93 262.98 71.24C260.66 67.67 260.78 64.43 258.84 60.56C257.05 57 254.34 54.69 252.75 50.98C251.08 47.07 251.74 43.96 248.39 40.53" id="bUIaSEzp"></path><path d="M254.3 39.97C255.3 54.19 266.31 56.02 275.12 64.43C283.61 72.53 287.61 81.22 296.1 88.99C291.52 83.59 285.33 73.44 284.22 66.89C289.67 65.38 294.44 72.09 299.85 73.62C306.77 75.57 311.84 74.67 318.36 79.37C326.86 85.51 336.52 95.49 347.58 95.76C339.16 90.4 332.52 83.88 323.55 79.34C320.13 77.61 316.5 74.57 312.91 73.29C308.1 71.58 302.84 72.56 298.24 70.82C281.44 64.51 272.71 51.18 258.82 40.03C258.48 45.31 263.34 47.73 264.71 52.02C259.77 50.5 257.59 45.89 255.18 41.7" id="ciqLL2aI"></path></defs><g><g><g><use xlink:href="#eEb7Y1GCb" opacity="1" fill="#100f0d" fill-opacity="1"></use><g><use xlink:href="#eEb7Y1GCb" opacity="1" fill-opacity="0" stroke="#000000" stroke-width="1" stroke-opacity="0"></use></g></g><g><use xlink:href="#aPg3Q5KsV" opacity="1" fill="#100f0d" fill-opacity="1"></use><g><use xlink:href="#aPg3Q5KsV" opacity="1" fill-opacity="0" stroke="#000000" stroke-width="1" stroke-opacity="0"></use></g></g><g><use xlink:href="#a4CdgzX5wU" opacity="1" fill="#100f0d" fill-opacity="1"></use><g><use xlink:href="#a4CdgzX5wU" opacity="1" fill-opacity="0" stroke="#000000" stroke-width="1" stroke-opacity="0"></use></g></g><g><use xlink:href="#bdantY28J" opacity="1" fill="#100f0d" fill-opacity="1"></use><g><use xlink:href="#bdantY28J" opacity="1" fill-opacity="0" stroke="#000000" stroke-width="1" stroke-opacity="0"></use></g></g><g><use xlink:href="#i25g73Ss8" opacity="1" fill="#100f0d" fill-opacity="1"></use><g><use xlink:href="#i25g73Ss8" opacity="1" fill-opacity="0" stroke="#000000" stroke-width="1" stroke-opacity="0"></use></g></g><g><use xlink:href="#bUIaSEzp" opacity="1" fill="#100f0d" fill-opacity="1"></use><g><use xlink:href="#bUIaSEzp" opacity="1" fill-opacity="0" stroke="#000000" stroke-width="1" stroke-opacity="0"></use></g></g><g><use xlink:href="#ciqLL2aI" opacity="1" fill="#100f0d" fill-opacity="1"></use><g><use xlink:href="#ciqLL2aI" opacity="1" fill-opacity="0" stroke="#000000" stroke-width="1" stroke-opacity="0"></use></g></g><path></path><path></path><path></path><path></path><path></path><path></path><path></path><path></path><path></path></g></g></svg>